<svg width="16" height="16" viewBox="0 0 16 16" fill="none" xmlns="http://www.w3.org/2000/svg">
<path fill-rule="evenodd" clip-rule="evenodd" d="M10.9998 5C10.9998 6.65685 9.65665 8 7.9998 8C6.34294 8 4.9998 6.65685 4.9998 5C4.9998 3.34315 6.34294 2 7.9998 2C9.65665 2 10.9998 3.34315 10.9998 5ZM10.1881 8.34886C11.2791 7.6345 11.9998 6.40141 11.9998 5C11.9998 2.79086 10.2089 1 7.9998 1C5.79066 1 3.9998 2.79086 3.9998 5C3.9998 6.40141 4.72048 7.6345 5.81146 8.34886C3.32214 9.1674 1.44936 11.3445 1.07026 14.003C0.992293 14.5497 1.44701 15 1.99929 15H7.9998H14.0003C14.5526 15 15.0073 14.5497 14.9293 14.003C14.5502 11.3445 12.6775 9.16741 10.1881 8.34886ZM7.9998 9C5.02722 9 2.55808 11.1626 2.0826 14H2.08706H2.09452H2.102H2.10951H2.11704H2.12459H2.13217H2.13976H2.14738H2.15502H2.16269H2.17037H2.17808H2.18581H2.19356H2.20134H2.20913H2.21695H2.22479H2.23266H2.24054H2.24845H2.25638H2.26433H2.2723H2.2803H2.28832H2.29636H2.30442H2.3125H2.3206H2.32873H2.33687H2.34504H2.35323H2.36145H2.36968H2.37794H2.38621H2.39451H2.40283H2.41117H2.41953H2.42792H2.43632H2.44475H2.4532H2.46166H2.47015H2.47866H2.4872H2.49575H2.50432H2.51292H2.52154H2.53017H2.53883H2.54751H2.55621H2.56493H2.57367H2.58243H2.59122H2.60002H2.60885H2.61769H2.62656H2.63544H2.64435H2.65328H2.66222H2.67119H2.68018H2.68919H2.69822H2.70727H2.71634H2.72543H2.73454H2.74367H2.75282H2.762H2.77119H2.7804H2.78963H2.79888H2.80815H2.81744H2.82676H2.83609H2.84544H2.85481H2.8642H2.87361H2.88304H2.89249H2.90196H2.91145H2.92096H2.93049H2.94004H2.94961H2.9592H2.9688H2.97843H2.98808H2.99774H3.00743H3.01713H3.02685H3.0366H3.04636H3.05614H3.06594H3.07576H3.0856H3.09546H3.10533H3.11523H3.12514H3.13508H3.14503H3.155H3.16499H3.175H3.18503H3.19508H3.20514H3.21522H3.22533H3.23545H3.24559H3.25575H3.26593H3.27612H3.28634H3.29657H3.30682H3.31709H3.32738H3.33769H3.34801H3.35835H3.36872H3.37909H3.38949H3.39991H3.41034H3.42079H3.43127H3.44175H3.45226H3.46278H3.47333H3.48389H3.49446H3.50506H3.51567H3.52631H3.53696H3.54762H3.55831H3.56901H3.57973H3.59047H3.60122H3.612H3.62279H3.63359H3.64442H3.65526H3.66612H3.677H3.6879H3.69881H3.70974H3.72068H3.73165H3.74263H3.75363H3.76464H3.77568H3.78672H3.79779H3.80887H3.81998H3.83109H3.84223H3.85338H3.86455H3.87573H3.88693H3.89815H3.90939H3.92064H3.93191H3.94319H3.95449H3.96581H3.97715H3.9885H3.99987H4.01125H4.02265H4.03407H4.0455H4.05695H4.06842H4.0799H4.0914H4.10291H4.11445H4.12599H4.13756H4.14914H4.16073H4.17234H4.18397H4.19561H4.20727H4.21895H4.23064H4.24234H4.25407H4.26581H4.27756H4.28933H4.30112H4.31292H4.32473H4.33657H4.34841H4.36028H4.37216H4.38405H4.39596H4.40789H4.41983H4.43178H4.44375H4.45574H4.46774H4.47976H4.49179H4.50384H4.5159H4.52798H4.54007H4.55218H4.5643H4.57644H4.58859H4.60076H4.61294H4.62514H4.63735H4.64958H4.66182H4.67408H4.68635H4.69863H4.71094H4.72325H4.73558H4.74792H4.76028H4.77266H4.78504H4.79745H4.80986H4.82229H4.83474H4.8472H4.85967H4.87216H4.88466H4.89718H4.90971H4.92225H4.93481H4.94738H4.95997H4.97257H4.98519H4.99781H5.01046H5.02311H5.03578H5.04847H5.06116H5.07388H5.0866H5.09934H5.11209H5.12486H5.13764H5.15043H5.16324H5.17606H5.18889H5.20174H5.2146H5.22748H5.24036H5.25326H5.26618H5.2791H5.29205H5.305H5.31797H5.33095H5.34394H5.35695H5.36996H5.383H5.39604H5.4091H5.42217H5.43526H5.44835H5.46146H5.47458H5.48772H5.50087H5.51403H5.5272H5.54039H5.55359H5.5668H5.58002H5.59326H5.60651H5.61977H5.63304H5.64633H5.65962H5.67294H5.68626H5.69959H5.71294H5.7263H5.73967H5.75306H5.76645H5.77986H5.79328H5.80671H5.82016H5.83361H5.84708H5.86056H5.87405H5.88756H5.90107H5.9146H5.92814H5.94169H5.95525H5.96883H5.98241H5.99601H6.00962H6.02324H6.03687H6.05052H6.06417H6.07784H6.09152H6.10521H6.11891H6.13262H6.14634H6.16008H6.17382H6.18758H6.20135H6.21513H6.22891H6.24272H6.25653H6.27035H6.28418H6.29803H6.31189H6.32575H6.33963H6.35352H6.36742H6.38133H6.39525H6.40918H6.42312H6.43707H6.45104H6.46501H6.47899H6.49299H6.50699H6.52101H6.53503H6.54907H6.56312H6.57717H6.59124H6.60532H6.61941H6.6335H6.64761H6.66173H6.67586H6.69H6.70415H6.7183H6.73247H6.74665H6.76084H6.77504H6.78924H6.80346H6.81769H6.83193H6.84617H6.86043H6.8747H6.88897H6.90326H6.91755H6.93186H6.94617H6.9605H6.97483H6.98917H7.00352H7.01788H7.03225H7.04663H7.06102H7.07542H7.08983H7.10425H7.11867H7.13311H7.14755H7.162H7.17647H7.19094H7.20542H7.21991H7.23441H7.24891H7.26343H7.27795H7.29249H7.30703H7.32158H7.33614H7.35071H7.36528H7.37987H7.39446H7.40906H7.42367H7.43829H7.45292H7.46756H7.4822H7.49685H7.51152H7.52618H7.54086H7.55555H7.57024H7.58494H7.59966H7.61437H7.6291H7.64383H7.65858H7.67333H7.68809H7.70285H7.71763H7.73241H7.7472H7.762H7.7768H7.79162H7.80644H7.82127H7.8361H7.85095H7.8658H7.88066H7.89552H7.9104H7.92528H7.94017H7.95506H7.96997H7.98488H7.9998H8.01471H8.02962H8.04453H8.05942H8.07431H8.0892H8.10407H8.11894H8.13379H8.14865H8.16349H8.17833H8.19316H8.20798H8.22279H8.2376H8.25239H8.26718H8.28196H8.29674H8.31151H8.32626H8.34101H8.35576H8.37049H8.38522H8.39994H8.41465H8.42935H8.44404H8.45873H8.47341H8.48808H8.50274H8.51739H8.53203H8.54667H8.5613H8.57592H8.59053H8.60513H8.61972H8.63431H8.64889H8.66345H8.67801H8.69256H8.70711H8.72164H8.73616H8.75068H8.76519H8.77968H8.79417H8.80865H8.82312H8.83759H8.85204H8.86648H8.88092H8.89535H8.90976H8.92417H8.93857H8.95296H8.96734H8.98171H8.99607H9.01042H9.02476H9.0391H9.05342H9.06773H9.08204H9.09633H9.11062H9.1249H9.13916H9.15342H9.16767H9.1819H9.19613H9.21035H9.22456H9.23875H9.25294H9.26712H9.28129H9.29545H9.30959H9.32373H9.33786H9.35198H9.36609H9.38019H9.39427H9.40835H9.42242H9.43647H9.45052H9.46456H9.47858H9.4926H9.5066H9.5206H9.53458H9.54856H9.56252H9.57647H9.59041H9.60434H9.61826H9.63217H9.64607H9.65996H9.67384H9.68771H9.70156H9.71541H9.72924H9.74306H9.75688H9.77068H9.78447H9.79825H9.81201H9.82577H9.83952H9.85325H9.86697H9.88068H9.89439H9.90807H9.92175H9.93542H9.94907H9.96272H9.97635H9.98997H10.0036H10.0172H10.0308H10.0443H10.0579H10.0715H10.085H10.0985H10.112H10.1255H10.139H10.1525H10.166H10.1794H10.1929H10.2063H10.2197H10.2331H10.2465H10.2599H10.2733H10.2867H10.3H10.3133H10.3267H10.34H10.3533H10.3666H10.3798H10.3931H10.4063H10.4196H10.4328H10.446H10.4592H10.4724H10.4856H10.4987H10.5119H10.525H10.5381H10.5512H10.5643H10.5774H10.5905H10.6035H10.6166H10.6296H10.6426H10.6557H10.6686H10.6816H10.6946H10.7075H10.7205H10.7334H10.7463H10.7592H10.7721H10.785H10.7979H10.8107H10.8235H10.8364H10.8492H10.862H10.8747H10.8875H10.9003H10.913H10.9257H10.9384H10.9511H10.9638H10.9765H10.9891H11.0018H11.0144H11.027H11.0396H11.0522H11.0648H11.0773H11.0899H11.1024H11.1149H11.1274H11.1399H11.1524H11.1649H11.1773H11.1897H11.2021H11.2145H11.2269H11.2393H11.2517H11.264H11.2763H11.2887H11.301H11.3132H11.3255H11.3378H11.35H11.3622H11.3745H11.3866H11.3988H11.411H11.4232H11.4353H11.4474H11.4595H11.4716H11.4837H11.4958H11.5078H11.5198H11.5318H11.5439H11.5558H11.5678H11.5798H11.5917H11.6036H11.6155H11.6274H11.6393H11.6512H11.663H11.6749H11.6867H11.6985H11.7103H11.722H11.7338H11.7455H11.7572H11.769H11.7806H11.7923H11.804H11.8156H11.8272H11.8389H11.8505H11.862H11.8736H11.8851H11.8967H11.9082H11.9197H11.9312H11.9426H11.9541H11.9655H11.9769H11.9883H11.9997H12.0111H12.0224H12.0338H12.0451H12.0564H12.0677H12.079H12.0902H12.1014H12.1127H12.1239H12.135H12.1462H12.1574H12.1685H12.1796H12.1907H12.2018H12.2129H12.2239H12.2349H12.246H12.257H12.2679H12.2789H12.2899H12.3008H12.3117H12.3226H12.3335H12.3443H12.3552H12.366H12.3768H12.3876H12.3984H12.4091H12.4199H12.4306H12.4413H12.452H12.4626H12.4733H12.4839H12.4945H12.5051H12.5157H12.5263H12.5368H12.5473H12.5578H12.5683H12.5788H12.5892H12.5997H12.6101H12.6205H12.6309H12.6412H12.6516H12.6619H12.6722H12.6825H12.6928H12.703H12.7133H12.7235H12.7337H12.7438H12.754H12.7641H12.7743H12.7844H12.7945H12.8045H12.8146H12.8246H12.8346H12.8446H12.8546H12.8645H12.8744H12.8844H12.8943H12.9041H12.914H12.9238H12.9337H12.9435H12.9532H12.963H12.9727H12.9825H12.9922H13.0019H13.0115H13.0212H13.0308H13.0404H13.05H13.0596H13.0691H13.0786H13.0881H13.0976H13.1071H13.1165H13.126H13.1354H13.1448H13.1542H13.1635H13.1728H13.1821H13.1914H13.2007H13.21H13.2192H13.2284H13.2376H13.2468H13.2559H13.265H13.2742H13.2833H13.2923H13.3014H13.3104H13.3194H13.3284H13.3374H13.3463H13.3552H13.3641H13.373H13.3819H13.3907H13.3996H13.4084H13.4172H13.4259H13.4347H13.4434H13.4521H13.4608H13.4694H13.4781H13.4867H13.4953H13.5038H13.5124H13.5209H13.5294H13.5379H13.5464H13.5548H13.5633H13.5717H13.5801H13.5884H13.5968H13.6051H13.6134H13.6217H13.6299H13.6381H13.6464H13.6545H13.6627H13.6709H13.679H13.6871H13.6952H13.7032H13.7113H13.7193H13.7273H13.7353H13.7432H13.7511H13.759H13.7669H13.7748H13.7826H13.7905H13.7983H13.806H13.8138H13.8215H13.8292H13.8369H13.8446H13.8522H13.8598H13.8674H13.875H13.8826H13.8901H13.8976H13.9051H13.9125H13.917C13.4415 11.1626 10.9724 9 7.9998 9Z" fill="#7D7D7D"/>
</svg>
