<svg width="16" height="16" viewBox="0 0 16 16" fill="none" xmlns="http://www.w3.org/2000/svg">
<path fill-rule="evenodd" clip-rule="evenodd" d="M5.5 2.5C5.5 2.22386 5.72386 2 6 2H10C10.2761 2 10.5 2.22386 10.5 2.5V4H5.5V2.5ZM4.5 4V2.5C4.5 1.67157 5.17157 1 6 1H10C10.8284 1 11.5 1.67157 11.5 2.5V4H13.5C14.3284 4 15 4.67157 15 5.5V13.5C15 14.3284 14.3284 15 13.5 15H2.5C1.67157 15 1 14.3284 1 13.5V5.5C1 4.67157 1.67157 4 2.5 4H4.5ZM2 5.5C2 5.22386 2.22386 5 2.5 5H13.5C13.7761 5 14 5.22386 14 5.5V13.5C14 13.7761 13.7761 14 13.5 14H2.5C2.22386 14 2 13.7761 2 13.5V5.5ZM8 9.5C8.55228 9.5 9 9.05228 9 8.5C9 7.94772 8.55228 7.5 8 7.5C7.44772 7.5 7 7.94772 7 8.5C7 9.05228 7.44772 9.5 8 9.5ZM8.5 10.437C9.36261 10.215 10 9.43192 10 8.5C10 7.39543 9.10457 6.5 8 6.5C6.89543 6.5 6 7.39543 6 8.5C6 9.43192 6.63739 10.215 7.5 10.437V12C7.5 12.2761 7.72386 12.5 8 12.5C8.27614 12.5 8.5 12.2761 8.5 12V10.437Z" fill="#2B2B2B"/>
</svg>
