<svg width="16" height="16" viewBox="0 0 16 16" fill="none" xmlns="http://www.w3.org/2000/svg">
<path fill-rule="evenodd" clip-rule="evenodd" d="M2.5 1C1.67157 1 1 1.67157 1 2.5V6C1 6.82843 1.67157 7.5 2.5 7.5H6C6.82843 7.5 7.5 6.82843 7.5 6V2.5C7.5 1.67157 6.82843 1 6 1H2.5ZM2 2.5C2 2.22386 2.22386 2 2.5 2H6C6.27614 2 6.5 2.22386 6.5 2.5V6C6.5 6.27614 6.27614 6.5 6 6.5H2.5C2.22386 6.5 2 6.27614 2 6V2.5ZM10 1C9.17157 1 8.5 1.67157 8.5 2.5V6C8.5 6.82843 9.17157 7.5 10 7.5H13.5C14.3284 7.5 15 6.82843 15 6V2.5C15 1.67157 14.3284 1 13.5 1H10ZM9.5 2.5C9.5 2.22386 9.72386 2 10 2H13.5C13.7761 2 14 2.22386 14 2.5V6C14 6.27614 13.7761 6.5 13.5 6.5H10C9.72386 6.5 9.5 6.27614 9.5 6V2.5ZM1 10C1 9.17157 1.67157 8.5 2.5 8.5H6C6.82843 8.5 7.5 9.17157 7.5 10V13.5C7.5 14.3284 6.82843 15 6 15H2.5C1.67157 15 1 14.3284 1 13.5V10ZM2.5 9.5C2.22386 9.5 2 9.72386 2 10V13.5C2 13.7761 2.22386 14 2.5 14H6C6.27614 14 6.5 13.7761 6.5 13.5V10C6.5 9.72386 6.27614 9.5 6 9.5H2.5ZM10 8.5C9.17157 8.5 8.5 9.17157 8.5 10V13.5C8.5 14.3284 9.17157 15 10 15H13.5C14.3284 15 15 14.3284 15 13.5V10C15 9.17157 14.3284 8.5 13.5 8.5H10ZM9.5 10C9.5 9.72386 9.72386 9.5 10 9.5H13.5C13.7761 9.5 14 9.72386 14 10V13.5C14 13.7761 13.7761 14 13.5 14H10C9.72386 14 9.5 13.7761 9.5 13.5V10Z" fill="#2B2B2B"/>
</svg>
